<svg width="24" height="24" viewBox="0 0 24 24" fill="none" xmlns="http://www.w3.org/2000/svg">
    <path fill-rule="evenodd" clip-rule="evenodd"
          d="M2 12C2 6.48 6.48 2 12 2C17.52 2 22 6.48 22 12C22 17.52 17.52 22 12 22C6.48 22 2 17.52 2 12ZM4 12C4 16.41 7.59 20 12 20C16.41 20 20 16.41 20 12C20 7.59 16.41 4 12 4C7.59 4 4 7.59 4 12Z"
          fill="#FB8A76"/>
    <path d="M14.7778 18H9.22222C8.60857 18 8.11111 17.4627 8.11111 16.8V9H7V7.8H9.22222V7.2C9.22222 6.53726 9.71968 6 10.3333 6H13.6667C14.2803 6 14.7778 6.53726 14.7778 7.2V7.8H17V9H15.8889V16.8C15.8889 17.4627 15.3914 18 14.7778 18ZM9.22222 9V16.8H14.7778V9H9.22222ZM10.3333 7.2V7.8H13.6667V7.2H10.3333ZM13.6667 15.6H12.5556V10.2H13.6667V15.6ZM11.4444 15.6H10.3333V10.2H11.4444V15.6Z"
          fill="#FB8A76"/>
</svg>
