<svg width="24" height="24" viewBox="0 0 24 24" fill="none" xmlns="http://www.w3.org/2000/svg">
<path fill-rule="evenodd" clip-rule="evenodd" d="M16 0H8L7.05 5.73C5.19 7.19 4 9.45 4 12C4 14.55 5.19 16.81 7.05 18.27L8 24H16L16.96 18.27C18.81 16.81 20 14.54 20 12C20 9.46 18.81 7.19 16.96 5.73L16 0ZM14.72 4.48L14.31 2H9.7L9.29 4.47C10.13 4.17 11.05 4 12 4C12.96 4 13.87 4.17 14.72 4.48ZM14.31 22L14.72 19.52C13.87 19.83 12.96 20 12 20C11.05 20 10.13 19.83 9.29 19.53L9.7 22H14.31ZM6 12C6 15.31 8.69 18 12 18C15.31 18 18 15.31 18 12C18 8.69 15.31 6 12 6C8.69 6 6 8.69 6 12Z" fill="black" fill-opacity="0.54"/>
</svg>
