<svg xmlns="http://www.w3.org/2000/svg" width="136" height="113" fill="none" viewBox="0 0 136 113"><path fill="#5D2E8E" d="M134.4 2.2002C133.2 0.900195 131.7 0.200195 129.8 0.200195H26.2C24.3 0.200195 22.7 0.900195 21.6 2.2002C20.4 3.5002 19.9 5.1002 20.2 7.0002L27.6 78.1002C28 82.3002 31.5 87.5002 35 89.7002L71.6 111.3C73.3 112.3 75.7 112.9 78.1 112.9C80.6 112.9 82.9 112.3 84.6 111.3L121.2 89.7002C124.8 87.7002 128.1 82.3002 128.6 78.1002L136 7.0002C136 5.3002 135.6 3.5002 134.4 2.2002ZM104.4 81.0002C101.4 83.0002 97.4 82.2002 95.4 79.3002L76.7 51.8002L65.4 63.1002V75.6002C65.4 79.2002 62.5 82.1002 58.9 82.1002C55.3 82.1002 52.4 79.2002 52.4 75.6002V21.4002C52.4 17.8002 55.3 14.9002 58.9 14.9002C62.5 14.9002 65.4 17.8002 65.4 21.4002V44.7002L93.3 16.8002C95.8 14.3002 100 14.3002 102.5 16.8002C105 19.3002 105 23.5002 102.5 26.0002L86 42.4002C86 42.5002 86.1 42.5002 86.1 42.6002L106.1 71.9002C108.1 74.9002 107.3 78.9002 104.4 81.0002Z"/><path fill="#F9A61C" fill-rule="evenodd" d="M12.5025 18.7856L0.42669 21.5631L8.81678 57.3823L20.1179 54.8873L12.5025 18.7856Z" clip-rule="evenodd"/><path fill="#F9A61C" d="M16.5591 18.1581L0.149536 19.8828L4.16343 58.0725L20.573 56.3477L16.5591 18.1581Z"/></svg>