<svg viewBox="0 0 10 13" fill="none" xmlns="http://www.w3.org/2000/svg">
<path fill-rule="evenodd" clip-rule="evenodd" d="M4.80731 12.439L4.99931 12.1667L4.80731 12.439ZM5.19131 12.439L5.19264 12.4383L5.19598 12.436L5.20598 12.4283L5.24531 12.4C5.27864 12.3753 5.32731 12.3393 5.38864 12.292C5.51131 12.198 5.68531 12.0597 5.89298 11.882C6.43811 11.416 6.94785 10.9102 7.41798 10.3687C8.52064 9.09333 9.66598 7.273 9.66598 5.192C9.66598 3.94867 9.17464 2.75533 8.29998 1.87533C7.86765 1.4398 7.35346 1.09406 6.787 0.858025C6.22053 0.621989 5.61298 0.500313 4.99931 0.5C4.38566 0.500269 3.77812 0.621893 3.21166 0.857871C2.6452 1.09385 2.13099 1.43952 1.69864 1.875C0.823116 2.75701 0.332054 3.94956 0.332642 5.19233C0.332642 7.273 1.47798 9.09333 2.58064 10.3687C3.05077 10.9102 3.5605 11.416 4.10564 11.882C4.31364 12.0597 4.48731 12.198 4.60998 12.292C4.67014 12.3384 4.73092 12.3839 4.79231 12.4287L4.80298 12.436L4.80598 12.4383L4.80731 12.439C4.92231 12.52 5.07631 12.52 5.19131 12.439ZM4.99931 12.1667L5.19131 12.439L4.99931 12.1667ZM6.66598 5.16667C6.66598 5.60869 6.49038 6.03262 6.17782 6.34518C5.86526 6.65774 5.44134 6.83333 4.99931 6.83333C4.55728 6.83333 4.13336 6.65774 3.8208 6.34518C3.50824 6.03262 3.33264 5.60869 3.33264 5.16667C3.33264 4.72464 3.50824 4.30072 3.8208 3.98816C4.13336 3.67559 4.55728 3.5 4.99931 3.5C5.44134 3.5 5.86526 3.67559 6.17782 3.98816C6.49038 4.30072 6.66598 4.72464 6.66598 5.16667Z" fill="#FB8A76"/>
</svg>
