<svg width="12" height="12" viewBox="0 0 12 12" fill="none" xmlns="http://www.w3.org/2000/svg">
<path fill-rule="evenodd" clip-rule="evenodd" d="M2.60753 0.00103125L2.62328 0.00161454C2.92895 0.0272812 3.19436 0.178948 3.43644 0.415781C3.89728 0.865531 4.88603 2.17745 4.96069 2.53503C5.04294 2.93345 4.95486 3.19245 4.69119 3.64978L4.62761 3.76295C4.50686 3.98345 4.4882 4.07445 4.52553 4.17886C5.1007 5.58586 6.08186 6.56703 7.47311 7.1352C7.60436 7.18303 7.70411 7.15561 7.98236 6.99578L8.12819 6.91411C8.51903 6.69886 8.76694 6.6312 9.13328 6.70761C9.48911 6.7817 10.8016 7.77103 11.2508 8.23128C11.4876 8.47336 11.6393 8.73878 11.6661 9.06486C11.6941 9.85645 10.7281 10.9712 10.1389 11.3066C9.46811 11.7861 8.61819 11.7779 7.66444 11.334C5.17069 10.2963 1.35628 6.50636 0.339529 4.01553L0.278862 3.87611C-0.107305 2.95386 -0.0985548 2.15703 0.343612 1.5562C0.747279 0.887698 1.8352 -0.0351354 2.60753 0.00103125ZM2.56086 0.853864L2.50895 0.856198C2.11228 0.908698 1.31778 1.59353 1.05295 2.0287L1.00745 2.09695C0.779362 2.46853 0.805612 2.97895 1.12295 3.67778L1.18361 3.81953C2.20795 6.11786 5.75345 9.61436 8.00861 10.5529L8.13228 10.6084C8.78444 10.8849 9.27853 10.8726 9.67811 10.5891L9.70786 10.5699C9.83153 10.4841 10.1168 10.2251 10.3367 9.97136C10.6453 9.61553 10.8203 9.28886 10.8144 9.11503C10.8086 9.04095 10.7509 8.94061 10.6406 8.82745C10.3069 8.48561 9.09245 7.57095 8.95828 7.54295C8.83169 7.5167 8.72728 7.55228 8.44261 7.71561L8.2997 7.79611C7.87969 8.02245 7.58394 8.08311 7.16628 7.93145C5.54694 7.27053 4.39719 6.12136 3.72928 4.4857C3.57178 4.0482 3.65636 3.73903 3.93169 3.25953L3.99703 3.14403C4.12186 2.91828 4.14869 2.82261 4.12536 2.70886C4.09678 2.57411 3.1827 1.36078 2.84028 1.02653C2.72711 0.915698 2.62736 0.858531 2.5527 0.852698L2.56086 0.853864Z" fill="#7472E0"/>
</svg>
