<svg viewBox="0 0 24 24" fill="none" xmlns="http://www.w3.org/2000/svg">
<g opacity="0.5">
<path d="M10.001 18C11.776 17.9996 13.4998 17.4054 14.898 16.312L19.294 20.708L20.708 19.294L16.312 14.898C17.406 13.4996 18.0005 11.7754 18.001 9.99997C18.001 5.58897 14.412 1.99997 10.001 1.99997C5.58998 1.99997 2.00098 5.58897 2.00098 9.99997C2.00098 14.411 5.58998 18 10.001 18ZM10.001 3.99997C13.31 3.99997 16.001 6.69097 16.001 9.99997C16.001 13.309 13.31 16 10.001 16C6.69198 16 4.00098 13.309 4.00098 9.99997C4.00098 6.69097 6.69198 3.99997 10.001 3.99997Z" fill="#FB8A76"/>
</g>
</svg>
